
<svg version="1.1" id="logo" xmlns="http://www.w3.org/2000/svg" xmlns:xlink="http://www.w3.org/1999/xlink" x="0px" y="0px"
	 viewBox="0 0 336 195" style="enable-background:new 0 0 336 195;" xml:space="preserve">




	<defs>
		<style type="text/css">
			.st0{fill:white;stroke:rgba(0, 0, 0, 0.8);stroke-miterlimit:5;}

		.st0 {
		stroke-dasharray:1200;
		stroke-dashoffset:0;
		-webkit-animation: dash 8s linear forwards;
		-o-animation: dash 8s linear forwards;
		-moz-animation: dash 8s linear forwards;
		animation: dash 8s linear forwards;
		}

		
		@-webkit-keyframes dash{
			from{
				stroke-dashoffset:1200;
			}
			to{
				stroke-dashoffset:0;
			}

		}


	</style>
</defs>

<g>
	<path class="st0" d="M63.5,94.399c0.4,0,0.75,0.15,1.05,0.45c0.3,0.3,1.083,0.65,2.35,1.05c2.066,0.134,4.316,0,6.75-0.4
		c2.433-0.4,5.15-1,8.15-1.8c5.933-1.733,10.9-3.833,14.9-6.3c7-4.266,10.5-9.9,10.5-16.9c0-6.666-2.9-12.5-8.7-17.5
		c-4.534-4.065-11-7.3-19.4-9.7c-8.2-2.4-16.867-3.6-26-3.6c-4.2,0-8.2,0.267-12,0.8c-3.8,0.535-7.435,1.3-10.9,2.3
		c-6.535,2-9.8,5.6-9.8,10.8c0,1.935,0.466,3.935,1.4,6c0.533,1.067,1.033,2.134,1.5,3.2c0,0.067-0.1,0.1-0.3,0.1
		s-0.567-0.266-1.1-0.8c-2-2.2-3-4.933-3-8.2c0-6,3.6-10.166,10.8-12.5c7.065-2.266,15.1-3.4,24.1-3.4
		c9.266,0,18.033,1.135,26.3,3.4c8.6,2.334,15.333,5.4,20.2,9.2c7.133,5.535,10.7,11.8,10.7,18.8c0,7.934-4.467,14.4-13.4,19.4
		c-3.467,2-7.935,3.834-13.4,5.5c-3.067,0.934-6,1.667-8.8,2.2c-2.8,0.535-5.534,0.867-8.2,1c-0.467,0-0.635,0.435-0.5,1.3
		c0.533,3.134,1.933,7.367,4.2,12.7c2.466,5.734,4.766,9.666,6.9,11.8c2.266,2.266,4.4,3.4,6.4,3.4c0.865,0,1.732-0.167,2.6-0.5
		c0.266-0.067,0.483-0.117,0.65-0.15c0.166-0.035,0.315-0.05,0.45-0.05c0.266,0.133,0.366,0.233,0.3,0.3
		c-0.067,0.266-0.334,0.5-0.8,0.7c-1.267,0.733-2.634,1.1-4.1,1.1c-2.134,0-4.634-1.1-7.5-3.3c-1.934-1.535-4.8-6.035-8.6-13.5
		c-3.8-7.466-5.7-12.4-5.7-14.8C61.5,95.099,62.166,94.399,63.5,94.399z M69.95,74.799c-3.035,4.467-6.018,8.967-8.95,13.5
		c-4.734,7.2-8.185,13-10.35,17.4c-2.167,4.4-3.15,7.467-2.95,9.2c0.065,0.667-0.535,1-1.8,1c-1.2,0-1.9-0.4-2.1-1.2
		c-1-3.2,9.7-20.6,32.1-52.2c0.733-0.732,0.9-1.533,0.5-2.4c-0.134-0.266-0.2-0.433-0.2-0.5c0-0.6,0.266-0.9,0.8-0.9
		c0.333,0,0.666,0.167,1,0.5c1,1.067,1.333,1.767,1,2.1C76,65.833,72.983,70.333,69.95,74.799z"/>
	<path class="st0" d="M137,93.599c-1.135,2-2.217,4.05-3.25,6.15c-1.035,2.1-1.95,4.15-2.75,6.15c-0.8,2-1.3,3.667-1.5,5
		c-0.2,1.2-0.217,2.067-0.05,2.6c0.166,0.535,0.416,0.85,0.75,0.95c0.333,0.1,0.75,0.084,1.25-0.05c0.5-0.133,0.983-0.266,1.45-0.4
		c0.465-0.133,1.033-0.35,1.7-0.65c0.666-0.3,1.2-0.583,1.6-0.85c1.066-0.732,1.65-0.815,1.75-0.25c0.1,0.567-0.25,1.217-1.05,1.95
		c-0.667,0.734-1.484,1.417-2.45,2.05c-0.967,0.635-1.884,1.117-2.75,1.45c-0.4,0.134-0.9,0.067-1.5-0.2
		c-0.6-0.266-1.15-0.65-1.65-1.15s-0.935-1.065-1.3-1.7c-0.367-0.633-0.55-1.283-0.55-1.95c0-1.266,0.15-2.6,0.45-4
		c0.3-1.4,0.683-2.766,1.15-4.1c0.466-1.333,0.983-2.65,1.55-3.95c0.566-1.3,1.083-2.516,1.55-3.65c0.4-1,0.4-1.815,0-2.45
		c-0.4-0.633-1.2-0.35-2.4,0.85c-1.6,1.6-3.685,3.617-6.25,6.05c-2.567,2.435-5.15,4.834-7.75,7.2c-2.6,2.367-5.018,4.467-7.25,6.3
		c-2.234,1.834-3.885,2.917-4.95,3.25c-1.8,0.6-3.267,0.315-4.4-0.85c-1.134-1.166-1.634-2.583-1.5-4.25
		c0.133-1.533,0.55-3.3,1.25-5.3c0.7-2,1.6-4.05,2.7-6.15c1.1-2.1,2.3-4.233,3.6-6.4c1.3-2.166,2.616-4.215,3.95-6.15
		c1.333-1.933,2.583-3.683,3.75-5.25c1.166-1.565,2.183-2.85,3.05-3.85c0.333-0.4,0.783-0.683,1.35-0.85
		c0.565-0.166,1.05-0.183,1.45-0.05c0.4,0.134,0.633,0.417,0.7,0.85c0.066,0.435-0.2,1.05-0.8,1.85
		c-1.535,1.867-3.15,4.034-4.85,6.5c-1.7,2.467-3.317,4.967-4.85,7.5c-1.534,2.534-2.917,5-4.15,7.4c-1.234,2.4-2.084,4.5-2.55,6.3
		c-0.8,2.734-0.785,4.484,0.05,5.25c0.833,0.768,2.083,0.685,3.75-0.25c2.6-1.6,5.35-3.715,8.25-6.35
		c2.9-2.633,5.766-5.383,8.6-8.25c2.833-2.866,5.55-5.666,8.15-8.4c2.6-2.732,4.9-5,6.9-6.8c0.6-0.6,1.133-0.8,1.6-0.6
		c0.466,0.2,0.833,0.584,1.1,1.15c0.266,0.567,0.416,1.167,0.45,1.8c0.033,0.634-0.05,1.117-0.25,1.45
		C139.166,89.899,138.133,91.599,137,93.599z"/>
	<path class="st0" d="M170.699,100.699c5.066-1.6,10.1-2.833,15.1-3.7l0.1,0.1c-4.667,0.935-9.45,2.384-14.35,4.35
		c-4.9,1.967-10.017,4.484-15.35,7.55c0.866,1.135,1.483,2.084,1.85,2.85c0.366,0.767,0.55,1.384,0.55,1.85
		c0,1.867-2.2,3.734-6.6,5.6c-3.734,1.666-6.767,2.5-9.1,2.5c-0.8,0-1.5-0.1-2.1-0.3c-0.934,0.133-1.684,0.266-2.25,0.4
		c-0.567,0.133-1.017,0.133-1.35,0c-0.865-0.067-1.065-0.5-0.6-1.3c1.133-1.4,5.633-4.833,13.5-10.3l-3.2-4.3
		c-0.734-0.933-1.284-1.833-1.65-2.7c-0.367-0.866-0.617-1.766-0.75-2.7c-0.535-4.465,4-9.5,13.6-15.1
		c4.8-2.865,9.315-4.982,13.55-6.35c4.233-1.366,8.216-2.016,11.95-1.95c0.4,0,0.766,0.2,1.1,0.6c0.266,0.6,0.266,1.034,0,1.3
		c-0.467,0.667-1.217,1.334-2.25,2c-1.034,0.667-1.784,0.935-2.25,0.8c-1.534-0.533-2.834-0.9-3.9-1.1c-1.067-0.2-1.967-0.3-2.7-0.3
		c-0.4,0-0.785,0.018-1.15,0.05c-0.367,0.034-0.717,0.084-1.05,0.15c-3.8,0.935-8.2,3.167-13.2,6.7
		c-6.334,4.334-9.267,8.134-8.8,11.4c0.2,1.334,0.933,3.034,2.2,5.1c1.4,2,2.533,3.234,3.4,3.7
		C160.399,104.599,165.632,102.299,170.699,100.699z M142.1,120.699c1.2,0.266,3.232-0.1,6.1-1.1c1.333-0.534,2.45-1,3.35-1.4
		s1.516-0.866,1.85-1.4c0.266-0.333,0.4-0.7,0.4-1.1c0-1.065-0.767-2.3-2.3-3.7c-1.067,0.667-2.7,1.8-4.9,3.4
		c-1.334,0.934-2.4,1.734-3.2,2.4s-1.367,1.266-1.7,1.8C141.165,120.199,141.299,120.565,142.1,120.699z"/>
	<path class="st0" d="M165.599,167.799c-1.8-1.935-2.935-4.117-3.4-6.55c-0.467-2.434-0.7-5.084-0.7-7.95
		c0-9.4,3.833-22.867,11.5-40.4c3.4-7.733,6.8-14.7,10.2-20.9c3.4-6.2,6.8-11.766,10.2-16.7c0.8-0.866,1.2-1.866,1.2-3
		c0-1.2-0.6-2.133-1.8-2.8c-2.4-0.933-3.334-1.965-2.8-3.1c0.2-0.4,1.183-0.7,2.95-0.9c1.766-0.2,4.25-0.3,7.45-0.3
		c0.266,0,0.3-0.1,0.1-0.3c-0.2-0.2-0.234-0.4-0.1-0.6c3.2-5,6.9-9.983,11.1-14.95c4.2-4.965,8.601-10.116,13.2-15.45
		c0.4-0.466,2.266-1.333,5.6-2.6c1.6-0.533,2.75-0.95,3.45-1.25c0.7-0.3,1.45-0.45,2.25-0.45c0.733,0,1.101,0.3,1.101,0.9
		c0,0.268-0.335,0.5-1,0.7c-6.268,1.267-16.635,11.834-31.101,31.7c-1.067,1.534-0.834,2.3,0.7,2.3h14.5
		c3.933,0,6.982,0.017,9.15,0.05c2.165,0.035,3.516,0.05,4.049,0.05c0.601,0,1,0.1,1.201,0.3c0,0.134-0.186,0.484-0.551,1.05
		c-0.367,0.567-0.85,0.884-1.449,0.95c-3.801,0.134-8.15,0.35-13.051,0.65c-4.9,0.3-10.484,0.617-16.75,0.95
		c-1.135,0.2-1.967,0.734-2.5,1.6c-3.535,5.2-6.867,10.367-10,15.5c-3.135,5.134-6.2,10.7-9.2,16.7
		c-4.6,9.535-8.234,18.183-10.9,25.95c-2.667,7.766-4.267,14.75-4.8,20.95c-0.067,0.865-0.1,1.666-0.1,2.4c0,0.8,0,1.6,0,2.4
		c0,11.6,4.1,17.4,12.3,17.4c2.333,0,4.933-0.434,7.8-1.3c4.2-1.334,8.366-3.435,12.5-6.3c4.133-2.867,8.333-6.6,12.6-11.2
		c4.399-4.6,7.782-8.9,10.149-12.9c2.366-4,3.816-7.8,4.351-11.4c0-6.267-2.234-9.034-6.7-8.3c-1,0.133-1.867,0.433-2.6,0.9
		c-0.734,0.466-1.268,0.7-1.6,0.7c-0.668,0-0.936-0.3-0.801-0.9c0.333-0.535,0.816-1,1.45-1.4c0.633-0.4,1.815-0.967,3.55-1.7
		c0.266-0.067,0.666-0.1,1.2-0.1c2.133,0,4.165,1.433,6.101,4.3c2,3,2.932,5.266,2.799,6.8c-1.334,8.8-7.699,18.366-19.1,28.7
		c-5.8,5.2-11.217,9.133-16.25,11.8c-5.035,2.666-9.785,4-14.25,4C173.465,173.799,169.065,171.799,165.599,167.799z"/>
	<path class="st0" d="M185.699,117.699c-1.667,0-2.5-1.166-2.5-3.5c0-4.733,3.7-10.8,11.1-18.2c3.4-3.4,6.6-6.15,9.6-8.25
		c3-2.1,5.8-3.683,8.4-4.75c0.6-0.2,1.25-0.383,1.95-0.55c0.7-0.166,1.415-0.25,2.149-0.25c0.801,0,1.601,0.084,2.4,0.25
		c0.801,0.167,1.6,0.384,2.4,0.65c1.133,0.134,1.766,0.167,1.9,0.1c1.199-0.2,2.064-0.633,2.6-1.3c0.133-0.133,0.332-0.2,0.6-0.2
		c0.266,0,0.5,0.167,0.7,0.5c0.2,0.334,0.266,0.567,0.2,0.7c-1.935,3-3.85,5.95-5.75,8.85c-1.9,2.9-3.75,5.85-5.551,8.85
		c-1.399,2.334-2.767,5.017-4.1,8.05c-1.334,3.034-2.55,6.1-3.65,9.2s-2.05,6.05-2.85,8.85c-0.8,2.8-1.334,5.166-1.6,7.1
		c-0.067,0.333-0.1,0.633-0.1,0.9c0,0.333,0,0.666,0,1c0,2.266,0.7,3.95,2.1,5.05c1.4,1.1,3.3,1.65,5.699,1.65
		c2.4,0,4.766-0.4,7.101-1.2c3.532-1.2,8.133-4.067,13.8-8.6c2.732-2.2,5.184-4.467,7.35-6.8c2.166-2.334,4.051-4.535,5.65-6.6
		c0.6-0.667,1-1,1.2-1c0.065,0.065,0.101,0.166,0.101,0.3c0,0.266-0.135,0.633-0.4,1.1c-1.535,2.266-3.385,4.666-5.551,7.2
		c-2.166,2.533-4.75,5.065-7.75,7.6c-2.799,2.266-5.316,4.133-7.549,5.6c-2.234,1.466-4.285,2.533-6.15,3.2
		c-0.935,0.333-1.867,0.583-2.801,0.75c-0.934,0.166-1.934,0.25-3,0.25c-1.6,0-3.066-0.25-4.399-0.75
		c-1.334-0.5-2.534-1.117-3.6-1.85c-1.267-0.734-2.15-1.784-2.65-3.15c-0.5-1.367-0.717-2.917-0.65-4.65
		c0.065-1.4,0.35-3.267,0.85-5.6c0.5-2.334,1.15-4.817,1.95-7.45c0.8-2.633,1.666-5.25,2.6-7.85c0.933-2.6,1.866-4.9,2.8-6.9
		c1.133-2.4,2.25-4.633,3.35-6.7c1.101-2.066,2.217-3.966,3.351-5.7c0.466-0.733,0.433-1.1-0.101-1.1
		c-0.066,0-0.166,0.067-0.299,0.2c-1.601,1.935-3.518,3.967-5.75,6.1c-2.235,2.134-4.818,4.467-7.75,7
		c-5.867,4.934-10.9,8.634-15.1,11.1C187.132,117.434,186.365,117.699,185.699,117.699z M189.199,110.699c0,1.6,0.6,2.4,1.8,2.4
		c0.466,0,0.966-0.166,1.5-0.5c3.733-2.333,7.666-5.483,11.8-9.45c4.133-3.966,8.566-8.783,13.301-14.45
		c0.199-0.2,0.299-0.433,0.299-0.7c0-0.732-0.434-1.416-1.299-2.05c-0.867-0.633-1.968-0.95-3.301-0.95c-0.734,0-1.5,0.1-2.3,0.3
		c-3.134,0.8-7.1,3.834-11.9,9.1c-2.267,2.534-4.185,4.967-5.75,7.3c-1.567,2.334-2.817,4.567-3.75,6.7
		C189.332,109.134,189.199,109.899,189.199,110.699z"/>
	<path class="st0" d="M213.499,117.699c-0.067-0.533-0.067-0.966,0-1.3c0.065-0.466,0.433-1.233,1.101-2.3
		c0.933-1.8,2.133-3.815,3.6-6.05c1.466-2.233,3.166-4.75,5.1-7.55c1.934-2.8,3.666-5.166,5.2-7.1c1.533-1.933,2.833-3.433,3.9-4.5
		c0.399-0.333,0.966-0.65,1.7-0.95c0.732-0.3,1.266-0.35,1.6-0.15c0.266,0.2,0.133,0.5-0.4,0.9c-0.467,0.267-1.834,1.767-4.1,4.5
		c-2.6,3-4.9,6.3-6.9,9.9c-0.867,1.535-0.934,2.3-0.199,2.3c0.332,0,0.699-0.2,1.1-0.6c4-4.133,8.865-7.966,14.6-11.5
		c4.2-2.6,7.233-3.6,9.101-3c0.665,0.2,1,0.7,1,1.5c0,0.667-0.385,1.867-1.15,3.6c-0.767,1.734-1.884,4.034-3.35,6.9
		c-0.4,0.6-0.601,1.167-0.601,1.7c0,0.734,0.301,1.1,0.9,1.1c0.4,0,0.732-0.133,1-0.4c4.666-4.2,9.016-7.75,13.05-10.65
		c4.033-2.9,7.75-5.15,11.15-6.75c0.399-0.2,0.766-0.3,1.1-0.3c1.133,0,1.565,0.7,1.3,2.1c-0.267,0.267-0.55,0.584-0.85,0.95
		c-0.3,0.367-0.65,0.784-1.05,1.25c-1.335,2.934-2.885,6.05-4.65,9.35c-1.767,3.3-3.817,6.85-6.149,10.65
		c-0.668,0.934-1,1.734-1,2.4c0,0.534,0.232,0.8,0.699,0.8c0.266,0,0.533-0.065,0.801-0.2c0.266-0.133,0.6-0.266,1-0.4
		c4.933-2.266,11.1-4.566,18.5-6.9c5.199-1.6,9.949-2.865,14.25-3.8c4.3-0.933,8.215-1.5,11.75-1.7
		c2.865-0.133,5.465-0.016,7.8,0.35c2.333,0.367,4.399,1.084,6.2,2.15c3.665,2.135,5.5,4.768,5.5,7.9c0,0.934-0.135,1.8-0.4,2.6
		c-0.467,1.334-1.3,2.234-2.5,2.7c-0.534,0.334-0.967,0.5-1.3,0.5c-0.268,0-0.4-0.1-0.4-0.3c0-0.266,0.25-0.566,0.75-0.9
		c0.5-0.333,1.05-1.2,1.65-2.6c0.466-1.133,0.7-2.066,0.7-2.8c0-2.333-1.2-4.3-3.601-5.9c-2.534-1.733-6.034-2.6-10.5-2.6
		c-0.534,0-1.1,0.017-1.7,0.05c-0.6,0.034-1.199,0.084-1.8,0.15c-9.8,1-19.534,3.234-29.2,6.7c-10.199,3.6-18.699,8-25.5,13.2
		c-0.334,0.2-0.634,0.3-0.899,0.3c-0.8,0-1.2-0.367-1.2-1.1c0-0.268,0.1-0.5,0.3-0.7l2.4-2.4c-0.2-0.666-0.167-1.466,0.1-2.4
		c5.466-6.733,9.366-13.166,11.7-19.3c0.466-0.933,0.7-1.833,0.7-2.7c0-1.133-0.468-1.7-1.4-1.7c-0.534,0-1.2,0.3-2,0.9
		c-10,8-16.399,14-19.2,18c-0.134,0.134-0.384,0.334-0.75,0.6c-0.367,0.267-0.917,0.534-1.649,0.8
		c-0.867,0.4-1.567,0.717-2.101,0.95c-0.534,0.234-0.967,0.45-1.3,0.65c-0.399,0.2-0.817,0.067-1.25-0.4
		c-0.435-0.466-0.517-0.866-0.25-1.2c2-2.933,3.716-5.75,5.15-8.45c1.433-2.7,2.55-5.316,3.35-7.85c0.266-0.6,0.4-1.233,0.4-1.9
		c0-1.2-0.5-1.8-1.5-1.8c-0.268,0-0.7,0.1-1.3,0.3c-0.668,0.334-1.601,0.917-2.801,1.75c-1.199,0.834-2.667,2.017-4.399,3.55
		c-3.867,3.2-7.2,6.4-10,9.6c-0.734,0.8-1.567,1.817-2.5,3.05c-0.935,1.234-1.968,2.685-3.101,4.35c-0.199,0.334-1,0.767-2.399,1.3
		c-0.734,0.267-1.3,0.5-1.7,0.7c-0.4,0.2-0.667,0.367-0.8,0.5C213.699,118.167,213.564,118.034,213.499,117.699z"/>
</g>
</svg>
